<?xml version="1.0" encoding="UTF-8" standalone="no"?>
<svg
   version="1.1"
   x="0px"
   y="0px"
   viewBox="0 0 64 80"
   style="enable-background:new 0 0 64 64; fill:white"
   xml:space="preserve"
   id="svg16"
   sodipodi:docname="noun-code-crawlers-883163.svg"
   inkscape:version="1.2.2 (b0a8486541, 2022-12-01)"
   xmlns:inkscape="http://www.inkscape.org/namespaces/inkscape"
   xmlns:sodipodi="http://sodipodi.sourceforge.net/DTD/sodipodi-0.dtd"
   xmlns="http://www.w3.org/2000/svg"
   xmlns:svg="http://www.w3.org/2000/svg"><defs
     id="defs20" /><sodipodi:namedview
     id="namedview18"
     pagecolor="#ffffff"
     bordercolor="#666666"
     borderopacity="1.0"
     inkscape:showpageshadow="2"
     inkscape:pageopacity="0.0"
     inkscape:pagecheckerboard="0"
     inkscape:deskcolor="#d1d1d1"
     showgrid="false"
     inkscape:zoom="12.8375"
     inkscape:cx="32.015579"
     inkscape:cy="28.666018"
     inkscape:window-width="1920"
     inkscape:window-height="1011"
     inkscape:window-x="0"
     inkscape:window-y="0"
     inkscape:window-maximized="1"
     inkscape:current-layer="svg16" /><g
     id="g10"><g
       id="g8"><path
         d="M39.1,29c1.6,0.2,3.2,0.6,4.7,1.1c0.1,0,0.2,0,0.3,0c0.4,0,0.8-0.3,1-0.7c0.2-0.5-0.1-1.1-0.6-1.3c-1.8-0.6-3.6-1-5.5-1.2    c1.7-1.1,3.2-2.7,4.2-4.6c0.3-0.5,0.1-1.1-0.4-1.4c-0.5-0.3-1.1-0.1-1.4,0.4c-0.6,1.2-1.5,2.2-2.5,3c0.3-0.8,0.5-1.7,0.5-2.6    c0-0.8-0.1-1.6-0.4-2.3c-0.2-0.5-0.8-0.8-1.3-0.6c-0.5,0.2-0.8,0.8-0.6,1.3c0.2,0.5,0.3,1.1,0.3,1.7c0,1.7-0.9,3.2-2.1,4.1l-0.4-3    c-0.1-1-0.9-1.8-1.9-1.8h-0.9h-0.9c-0.9,0-1.7,0.8-1.9,1.8L29,25.6c-1-0.9-1.6-2.2-1.6-3.6c0-0.6,0.1-1.1,0.3-1.7    c0.2-0.5-0.1-1.1-0.6-1.3c-0.5-0.2-1.1,0.1-1.3,0.6c-0.3,0.8-0.4,1.5-0.4,2.3c0,1,0.2,1.9,0.5,2.7c-1-0.9-1.9-1.9-2.6-3.2    c-0.3-0.5-0.9-0.7-1.4-0.4c-0.5,0.3-0.7,0.9-0.4,1.4c1,1.9,2.4,3.4,4.1,4.5c-2.1,0.2-4.2,0.6-6.2,1.3c-0.5,0.2-0.8,0.7-0.6,1.3    c0.1,0.4,0.5,0.7,1,0.7c0.1,0,0.2,0,0.3,0c1.9-0.6,3.8-1,5.8-1.2c-3.2,2.1-5.3,5.8-5.3,9.9c0,2,0.5,4,1.5,5.7    c0.2,0.3,0.5,0.5,0.9,0.5c0.2,0,0.3,0,0.5-0.1c0.5-0.3,0.7-0.9,0.4-1.4c-0.8-1.5-1.2-3.1-1.2-4.8c0-3.6,2-6.8,4.9-8.5    c-0.7,1.2-1.2,2.7-1.2,4.3c0,2.5,0,7.7,5.9,7.7c5.9,0,5.9-5,5.9-7.7c0-1.8-0.6-3.5-1.4-4.8c3.4,1.6,5.8,5,5.8,9    c0,1.7-0.4,3.3-1.2,4.8c-0.3,0.5-0.1,1.1,0.4,1.4C41.6,45,41.8,45,42,45c0.4,0,0.7-0.2,0.9-0.5c1-1.7,1.5-3.7,1.5-5.7    C44.3,34.7,42.3,31.1,39.1,29z M31.3,23.2h0.8h0.8c0,0,0,0,0,0l0.4,3.6c-0.2,0-0.5,0.1-0.7,0.1c-0.1,0-0.2,0-0.2,0    c-0.5,0-1-0.1-1.5-0.3L31.3,23.2z M32.1,40.4c-2.9,0-3.9-1.4-3.9-5.7c0-3.1,2.1-5.4,3.6-5.7c0.1,0,0.3,0,0.4,0    c1.5,0.1,3.8,2.5,3.8,5.7C36,38.5,35.4,40.4,32.1,40.4z"
         id="path2" /><path
         d="M7.3,32l13.6-17.3c0.3-0.4,0.3-1.1-0.2-1.4c-0.4-0.3-1.1-0.3-1.4,0.2l-14.1,18c-0.3,0.4-0.3,0.9,0,1.2l14.1,18    c0.2,0.3,0.5,0.4,0.8,0.4c0.2,0,0.4-0.1,0.6-0.2c0.4-0.3,0.5-1,0.2-1.4L7.3,32z"
         id="path4" /><path
         d="M58.8,31.4l-14.1-18c-0.3-0.4-1-0.5-1.4-0.2c-0.4,0.3-0.5,1-0.2,1.4L56.7,32L43.1,49.4c-0.3,0.4-0.3,1.1,0.2,1.4    c0.2,0.1,0.4,0.2,0.6,0.2c0.3,0,0.6-0.1,0.8-0.4l14.1-18C59,32.3,59,31.8,58.8,31.4z"
         id="path6" /></g></g></svg>
